<svg xmlns="http://www.w3.org/2000/svg" width="512" height="512" viewBox="0 0 512 512"><title>Scene</title><defs><linearGradient id="icon-studio-bg" x1="0.146" y1="0.854" x2="0.854" y2="0.146"><stop offset="0" stop-color="#7F00FF"/><stop offset="1" stop-color="#E100FF"/></linearGradient><radialGradient id="icon-studio-glare" cx="0.28" cy="0.22" r="0.85"><stop offset="0" stop-color="#FFFFFF" stop-opacity="0.077"/><stop offset="0.55" stop-color="#FFFFFF" stop-opacity="0.017"/><stop offset="1" stop-color="#FFFFFF" stop-opacity="0"/></radialGradient></defs><rect width="512" height="512" fill="url(#icon-studio-bg)"/><g transform="translate(122.88 122.88) scale(11.093)" color="#FFFFFF"><path fill="currentColor" d="m20.84 2.18l-3.93.78l2.74 3.54l1.97-.4zm-6.87 1.36L12 3.93l2.75 3.53l1.96-.39zm-4.9.96l-1.97.41l2.75 3.53l1.96-.39zm-4.91 1l-.98.19a1.995 1.995 0 0 0-1.57 2.35L2 10l4.9-.97zM20 12v8H4v-8zm2-2H2v10a2 2 0 0 0 2 2h16c1.11 0 2-.89 2-2z"/></g><rect width="512" height="512" fill="url(#icon-studio-glare)"/></svg>
