<svg xmlns="http://www.w3.org/2000/svg" width="512" height="512" viewBox="0 0 512 512"><title>Vector</title><defs><linearGradient id="icon-studio-bg" x1="0.146" y1="0.146" x2="0.854" y2="0.854"><stop offset="0" stop-color="#7303C0"/><stop offset="0.5" stop-color="#EC38BC"/><stop offset="1" stop-color="#FDEFF9"/></linearGradient><radialGradient id="icon-studio-glare" cx="0.28" cy="0.22" r="0.85"><stop offset="0" stop-color="#FFFFFF" stop-opacity="0.077"/><stop offset="0.55" stop-color="#FFFFFF" stop-opacity="0.017"/><stop offset="1" stop-color="#FFFFFF" stop-opacity="0"/></radialGradient></defs><rect width="512" height="512" fill="url(#icon-studio-bg)"/><g transform="translate(122.88 122.88) scale(11.093)" color="#FFFFFF"><g fill="none" stroke="currentColor" stroke-linecap="round" stroke-linejoin="round" stroke-width="2"><path d="M15.5 13a3.5 3.5 0 0 0-3.5 3.5v1a3.5 3.5 0 0 0 7 0v-1.8M8.5 13a3.5 3.5 0 0 1 3.5 3.5v1a3.5 3.5 0 0 1-7 0v-1.8"/><path d="M17.5 16a3.5 3.5 0 0 0 0-7H17"/><path d="M19 9.3V6.5a3.5 3.5 0 0 0-7 0M6.5 16a3.5 3.5 0 0 1 0-7H7"/><path d="M5 9.3V6.5a3.5 3.5 0 0 1 7 0v10"/></g></g><rect width="512" height="512" fill="url(#icon-studio-glare)"/></svg>
