<svg xmlns="http://www.w3.org/2000/svg" width="512" height="512" viewBox="0 0 512 512"><title>Torrents</title><defs><linearGradient id="icon-studio-bg" x1="0.146" y1="0.854" x2="0.854" y2="0.146"><stop offset="0" stop-color="#3F5EFB"/><stop offset="1" stop-color="#FC466B"/></linearGradient><radialGradient id="icon-studio-glare" cx="0.28" cy="0.22" r="0.85"><stop offset="0" stop-color="#FFFFFF" stop-opacity="0.077"/><stop offset="0.55" stop-color="#FFFFFF" stop-opacity="0.017"/><stop offset="1" stop-color="#FFFFFF" stop-opacity="0"/></radialGradient></defs><rect width="512" height="512" fill="url(#icon-studio-bg)"/><g transform="translate(122.88 122.88) scale(11.093)" color="#FFFFFF"><path fill="none" stroke="currentColor" stroke-linecap="round" stroke-linejoin="round" stroke-width="2" d="M4 13V5a2 2 0 0 1 2-2h1a2 2 0 0 1 2 2v8a2 2 0 0 0 6 0V5a2 2 0 0 1 2-2h1a2 2 0 0 1 2 2v8a8 8 0 0 1-16 0m0-5h5m6 0h4"/></g><rect width="512" height="512" fill="url(#icon-studio-glare)"/></svg>
