<svg width="458" height="100" viewBox="0 0 458 100" fill="none" xmlns="http://www.w3.org/2000/svg" role="img" aria-label="KROMA">
<path d="M19.32 90.2H0V11H19.32V45.68C23.24 43.92 26.88 41.72 30.24 39.08C33.6 36.44 36.58 33.56 39.18 30.44C41.78 27.32 43.94 24.1 45.66 20.78C47.38 17.46 48.64 14.2 49.44 11H71.76C70.8 14.68 69.24 18.42 67.08 22.22C64.92 26.02 62.32 29.66 59.28 33.14C56.24 36.62 52.98 39.72 49.5 42.44C46.02 45.16 42.48 47.32 38.88 48.92V50.72C42.56 50.72 45.82 51.12 48.66 51.92C51.5 52.72 54.02 53.96 56.22 55.64C58.42 57.32 60.34 59.42 61.98 61.94C63.62 64.46 65.04 67.48 66.24 71L73.08 90.2H51.12L46.68 74.48C45.72 70.96 44.44 68.18 42.84 66.14C41.24 64.1 39.12 62.62 36.48 61.7C33.84 60.78 30.44 60.32 26.28 60.32H19.32V90.2ZM101.28 90.2H81.96V11H115.68C120.08 11 124.08 11.34 127.68 12.02C131.28 12.7 134.46 13.7 137.22 15.02C139.98 16.34 142.32 17.94 144.24 19.82C146.16 21.7 147.6 23.86 148.56 26.3C149.52 28.74 150 31.44 150 34.4C150 37.2 149.56 39.72 148.68 41.96C147.8 44.2 146.46 46.16 144.66 47.84C142.86 49.52 140.6 50.88 137.88 51.92C135.16 52.96 132 53.72 128.4 54.2V56C132.96 56.48 136.5 57.5 139.02 59.06C141.54 60.62 143.48 62.68 144.84 65.24C146.2 67.8 147.4 70.88 148.44 74.48L153 90.2H131.52L128.04 75.68C127.32 72.48 126.34 70 125.1 68.24C123.86 66.48 122.28 65.26 120.36 64.58C118.44 63.9 116.04 63.56 113.16 63.56H101.28V90.2ZM101.28 25.64V49.28H114.36C119.24 49.28 123.04 48.32 125.76 46.4C128.48 44.48 129.84 41.48 129.84 37.4C129.84 33.4 128.6 30.44 126.12 28.52C123.64 26.6 119.88 25.64 114.84 25.64H101.28Z" fill="#0A0A0C"/>
<g clip-path="url(#clip0_1_23)">
<mask id="mask0_1_23" style="mask-type:luminance" maskUnits="userSpaceOnUse" x="159" y="0" width="100" height="100">
<path d="M259 0H159V100H259V0Z" fill="white"/>
<path d="M209 67.0455C218.414 67.0455 226.045 59.4139 226.045 50C226.045 40.5861 218.414 32.9545 209 32.9545C199.586 32.9545 191.955 40.5861 191.955 50C191.955 59.4139 199.586 67.0455 209 67.0455Z" fill="black"/>
</mask>
<g mask="url(#mask0_1_23)">
<path d="M209 50V1.90735e-06C217.757 0.0209362 226.354 2.34117 233.932 6.72854C241.51 11.1159 247.804 17.4166 252.182 25L209 50Z" fill="#F2685C"/>
<path d="M209 50L252.182 25C256.57 32.601 258.881 41.2232 258.881 50C258.881 58.7768 256.57 67.399 252.182 75L209 50Z" fill="#F4B642"/>
<path d="M209 50L252.182 75C247.804 82.5834 241.51 88.8841 233.932 93.2715C226.354 97.6588 217.757 99.9791 209 100V50Z" fill="#5FBF8F"/>
<path d="M209 50V100C200.243 99.9791 191.646 97.6588 184.068 93.2715C176.49 88.8841 170.196 82.5834 165.818 75L209 50Z" fill="#4F9DE0"/>
<path d="M209 50L165.818 75C161.43 67.399 159.119 58.7768 159.119 50C159.119 41.2232 161.43 32.601 165.818 25L209 50Z" fill="#6366F1"/>
<path d="M209 50L165.818 25C170.196 17.4166 176.49 11.1159 184.068 6.72854C191.646 2.34117 200.243 0.0209362 209 1.90735e-06V50Z" fill="#A855F7"/>
</g>
</g>
<path d="M287 90.2H269V11H297.92L318.56 68H319.16L339.32 11H366.92V90.2H348.68L349.76 30.68H348.44L325.52 90.2H309.68L287.24 30.68H285.92L287 90.2ZM396.44 90.2H375.32L402.2 11H430.52L457.4 90.2H436.28L431.84 75.32H400.88L396.44 90.2ZM404.72 62.36H428L417.32 26.12H415.4L404.72 62.36Z" fill="#0A0A0C"/>
<defs>
<clipPath id="clip0_1_23">
<rect width="100" height="100" fill="white" transform="translate(159)"/>
</clipPath>
</defs>
</svg>
